<svg preserveAspectRatio="none" width="100%" height="100%" overflow="visible" style="display: block;" viewBox="0 0 74.5709 8.87655" fill="none" xmlns="http://www.w3.org/2000/svg">
<g id="Group">
<path id="Vector" d="M6.3473 0.0200839H7.62475L4.4511 8.85647H3.15369L0 0.0200839H1.33732L3.85229 7.16952L6.3473 0.0200839Z" fill="var(--fill-0, #205036)"/>
<path id="Vector_2" d="M9.26148 0.0200839H14.2515V1.14472H10.479V3.69521H14.1517V4.81985H10.479V7.75192H14.3713V8.87655H9.28144V0.0401678L9.26148 0.0200839Z" fill="var(--fill-0, #205036)"/>
<path id="Vector_3" d="M19.5805 8.85631H18.3828V1.14456H15.6084V0.0199241H22.3749V1.14456H19.6004V8.85631H19.5805Z" fill="var(--fill-0, #205036)"/>
<path id="Vector_4" d="M23.6727 0.0200839H28.6627V1.14472H24.8902V3.69521H28.5629V4.81985H24.8902V7.75192H28.7824V8.87655H23.6926V0.0401678L23.6727 0.0200839Z" fill="var(--fill-0, #205036)"/>
<path id="Vector_5" d="M32.0559 5.02067V8.85647H30.8583V0.0200839H33.9721C35.7485 0.0200839 36.7265 1.08447 36.7265 2.53042C36.7265 3.97637 36.1477 4.41819 34.9501 4.81985L37.006 8.85647H35.6088L33.7325 5.02067H32.0758H32.0559ZM32.0559 1.12463V3.89604H33.8323C34.9102 3.89604 35.4491 3.35381 35.4491 2.51034C35.4491 1.66686 34.9301 1.12463 33.9122 1.12463H32.0559V1.12463Z" fill="var(--fill-0, #205036)"/>
<path id="Vector_6" d="M40.0397 8.85631H38.8421V0.0199241H40.0397V8.85631Z" fill="var(--fill-0, #205036)"/>
<path id="Vector_7" d="M43.5729 2.06851V8.83638H42.4351V0H43.6527L48.2635 6.82811V0H49.4012V8.83638H48.1238L43.5529 2.06851H43.5729Z" fill="var(--fill-0, #205036)"/>
<path id="Vector_8" d="M56.8461 6.68737H52.9339L52.0756 8.85631H50.7982L54.3511 0.0199241H55.5487L58.9818 8.85631H57.6644L56.8261 6.68737H56.8461ZM53.353 5.58283H56.4469L54.9499 1.72695L53.373 5.58283H53.353Z" fill="var(--fill-0, #205036)"/>
<path id="Vector_9" d="M61.5768 5.02067V8.85647H60.3792V0.0200839H63.493C65.2695 0.0200839 66.2475 1.08447 66.2475 2.53042C66.2475 3.97637 65.6687 4.41819 64.4711 4.81985L66.527 8.85647H65.1297L63.2535 5.02067H61.5968H61.5768ZM61.5768 1.12463V3.89604H63.3533C64.4311 3.89604 64.9701 3.35381 64.9701 2.51034C64.9701 1.66686 64.4511 1.12463 63.4331 1.12463H61.5768V1.12463Z" fill="var(--fill-0, #205036)"/>
<path id="Vector_10" d="M73.2335 0.0200839H74.5709L71.4571 5.14117V8.85647H70.2595V5.14117L67.2056 0.0200839H68.5629L70.8982 3.91612L73.2335 0.0200839V0.0200839Z" fill="var(--fill-0, #205036)"/>
</g>
</svg>
