<svg preserveAspectRatio="none" width="100%" height="100%" overflow="visible" style="display: block;" viewBox="0 0 110.02 50.0866" fill="none" xmlns="http://www.w3.org/2000/svg">
<g id="Group">
<path id="Vector" d="M10 50.0862C6.84631 50.0862 4.39122 49.1423 2.63473 47.2345C0.878243 45.3467 0 42.5351 0 38.8399V30.2044H7.08583V38.4784C7.08583 39.4223 7.14571 40.306 7.26547 41.1093C7.38523 41.9126 7.62475 42.5552 8.02395 43.0372C8.40319 43.5192 9.002 43.7602 9.8004 43.7602C10.5988 43.7602 11.1976 43.5192 11.5768 43.0573C11.9561 42.5954 12.2156 41.9327 12.3353 41.0691C12.4551 40.2256 12.5349 39.2014 12.5349 38.0366V1.14471H19.8603V37.6751C19.8603 41.6515 18.982 44.7041 17.2455 46.8529C15.509 49.0018 13.0938 50.0662 10.02 50.0662L10 50.0862Z" fill="var(--fill-0, #205036)"/>
<path id="Vector_2" d="M36.3473 50.0862C33.8523 50.0862 31.8164 49.6043 30.2595 48.6804C28.7026 47.7366 27.5449 46.3107 26.8263 44.3828C26.0878 42.4749 25.7285 40.0449 25.7285 37.1128V1.14471H33.0539V36.9722C33.0539 38.3379 33.1138 39.5227 33.2335 40.547C33.3533 41.5712 33.6327 42.3745 34.0918 42.9368C34.5509 43.4991 35.2894 43.7803 36.3273 43.7803C37.3653 43.7803 38.1238 43.4991 38.5828 42.9368C39.0419 42.3745 39.3413 41.5913 39.4411 40.567C39.5409 39.5428 39.6008 38.3379 39.6008 36.9722V1.14471H46.9261V37.1128C46.9261 40.0449 46.5669 42.4749 45.8483 44.3828C45.1297 46.2906 43.992 47.7366 42.4351 48.6804C40.8782 49.6243 38.8423 50.0862 36.3473 50.0862V50.0862Z" fill="var(--fill-0, #205036)"/>
<path id="Vector_3" d="M52.6144 49.5239V1.14468H58.3429L68.5425 30.1642L68.0236 16.9698V1.14468H74.6104V49.5239H69.4208L58.9617 19.4802L59.3809 32.1724V49.5239H52.6344H52.6144Z" fill="var(--fill-0, #205036)"/>
<path id="Vector_4" d="M90.8181 50.0866C88.3231 50.0866 86.2872 49.5644 84.7103 48.5C83.1335 47.4356 81.9758 45.8692 81.2173 43.7806C80.4788 41.692 80.0995 39.1013 80.0995 36.0287V13.8775C80.0995 11.086 80.4588 8.71621 81.1973 6.72802C81.9159 4.73983 83.0736 3.23363 84.6704 2.16925C86.2472 1.10486 88.3231 0.582715 90.8979 0.582715C93.4728 0.582715 94.4508 0.883955 95.7882 1.48644C97.1255 2.08892 98.1834 2.97256 99.0217 4.11727C99.8401 5.26198 100.439 6.64769 100.818 8.29447C101.197 9.94125 101.377 11.8089 101.377 13.8975V36.0287C101.377 39.1013 101.018 41.692 100.299 43.7806C99.5806 45.8692 98.4428 47.4557 96.9059 48.5C95.349 49.5644 93.3331 50.0866 90.8381 50.0866H90.8181ZM90.8181 43.7003C91.7363 43.7003 92.4149 43.4191 92.874 42.8769C93.3331 42.3346 93.6325 41.4912 93.7921 40.3665C93.9518 39.2419 94.0317 37.816 94.0317 36.0889V13.5561C94.0317 11.4475 93.8321 9.82075 93.4528 8.67604C93.0536 7.53133 92.2153 6.94893 90.9179 6.94893C89.6205 6.94893 88.6824 7.51124 88.2033 8.61579C87.7243 9.72034 87.4848 11.3671 87.4848 13.516V36.0889C87.4848 37.8562 87.5646 39.2821 87.7243 40.4268C87.884 41.5514 88.2033 42.3748 88.6824 42.917C89.1614 43.4392 89.88 43.7203 90.8181 43.7203V43.7003Z" fill="var(--fill-0, #205036)"/>
<path id="Vector_5" d="M109.281 2.99232C107.984 1.92794 106.607 0.903721 105.19 0C104.651 1.06438 104.032 2.0886 103.313 3.05257C102.535 4.01654 101.657 4.92026 100.699 5.70348C99.6807 6.44654 98.5829 7.08919 97.4451 7.59126C96.4671 7.97283 95.4491 8.27407 94.3912 8.45481C93.6727 8.53514 92.9541 8.53514 92.2156 8.45481C91.6168 8.3544 91.018 8.19374 90.4391 7.97283C89.9202 7.73184 89.4212 7.4306 88.9421 7.08919C88.6028 6.78795 88.2635 6.46663 87.9641 6.12522C87.8044 5.88423 87.6447 5.62315 87.525 5.36208C87.4052 5.04076 87.3254 4.69935 87.2655 4.35794C87.2655 4.15712 87.2455 3.97637 87.2455 3.77555C85.0699 4.83993 83.1138 6.64737 82.6148 8.77614C84.0918 11.3066 86.7066 13.1341 89.4811 13.9575C90.3992 14.2185 91.3573 14.3591 92.2954 14.4395C93.014 14.4997 93.7326 14.4796 94.4511 14.3993C95.4292 14.2989 96.4072 14.1382 97.3653 13.8771C98.3034 13.6161 99.2216 13.2546 100.12 12.8529C102.994 11.6078 105.609 9.61961 107.565 7.16952C108.483 6.02481 109.321 4.81985 110.02 3.55464C109.78 3.35381 109.541 3.1329 109.281 2.93207V2.99232Z" fill="var(--fill-0, #205036)"/>
</g>
</svg>
