<svg width="110" height="68" viewBox="0 0 110 68" fill="none" xmlns="http://www.w3.org/2000/svg">
<g clip-path="url(#clip0_4813_462)">
<path d="M10 50.0862C6.84631 50.0862 4.39122 49.1424 2.63473 47.2345C0.878243 45.3467 0 42.5351 0 38.8399V30.2044H7.08583V38.4784C7.08583 39.4223 7.14571 40.306 7.26547 41.1093C7.38523 41.9126 7.62475 42.5552 8.02395 43.0372C8.40319 43.5192 9.002 43.7602 9.8004 43.7602C10.5988 43.7602 11.1976 43.5192 11.5768 43.0573C11.9561 42.5954 12.2156 41.9327 12.3353 41.0691C12.4551 40.2256 12.5349 39.2014 12.5349 38.0366V1.14471H19.8603V37.6751C19.8603 41.6515 18.982 44.7041 17.2455 46.8529C15.509 49.0018 13.0938 50.0662 10.02 50.0662L10 50.0862Z" fill="#205036"/>
<path d="M36.3473 50.0862C33.8523 50.0862 31.8163 49.6043 30.2595 48.6804C28.7026 47.7366 27.5449 46.3107 26.8263 44.3828C26.0878 42.4749 25.7285 40.0449 25.7285 37.1128V1.14471H33.0539V36.9722C33.0539 38.3379 33.1137 39.5227 33.2335 40.547C33.3533 41.5712 33.6327 42.3745 34.0918 42.9368C34.5509 43.4991 35.2894 43.7803 36.3273 43.7803C37.3652 43.7803 38.1237 43.4991 38.5828 42.9368C39.0419 42.3745 39.3413 41.5913 39.4411 40.567C39.5409 39.5428 39.6008 38.3379 39.6008 36.9722V1.14471H46.9261V37.1128C46.9261 40.0449 46.5668 42.4749 45.8483 44.3828C45.1297 46.2906 43.992 47.7366 42.4351 48.6804C40.8782 49.6243 38.8423 50.0862 36.3473 50.0862V50.0862Z" fill="#205036"/>
<path d="M52.6144 49.5239V1.14468H58.3429L68.5425 30.1642L68.0236 16.9698V1.14468H74.6104V49.5239H69.4208L58.9617 19.4802L59.3808 32.1724V49.5239H52.6343H52.6144Z" fill="#205036"/>
<path d="M90.8181 50.0866C88.323 50.0866 86.2871 49.5644 84.7103 48.5C83.1334 47.4356 81.9757 45.8692 81.2173 43.7806C80.4787 41.692 80.0995 39.1013 80.0995 36.0287V13.8775C80.0995 11.086 80.4588 8.71621 81.1973 6.72802C81.9159 4.73983 83.0735 3.23363 84.6704 2.16925C86.2472 1.10487 88.323 0.582715 90.8979 0.582715C93.4727 0.582715 94.4508 0.883955 95.7881 1.48644C97.1254 2.08892 98.1833 2.97256 99.0216 4.11727C99.84 5.26198 100.439 6.64769 100.818 8.29447C101.197 9.94125 101.377 11.8089 101.377 13.8975V36.0287C101.377 39.1013 101.018 41.692 100.299 43.7806C99.5805 45.8692 98.4428 47.4557 96.9059 48.5C95.349 49.5644 93.333 50.0866 90.838 50.0866H90.8181ZM90.8181 43.7003C91.7362 43.7003 92.4149 43.4191 92.8739 42.8769C93.333 42.3346 93.6324 41.4912 93.7921 40.3665C93.9518 39.2419 94.0316 37.816 94.0316 36.0889V13.5561C94.0316 11.4475 93.832 9.82075 93.4528 8.67604C93.0536 7.53133 92.2153 6.94893 90.9179 6.94893C89.6204 6.94893 88.6823 7.51124 88.2033 8.61579C87.7242 9.72034 87.4847 11.3671 87.4847 13.516V36.0889C87.4847 37.8562 87.5646 39.2821 87.7242 40.4268C87.8839 41.5514 88.2033 42.3748 88.6823 42.917C89.1614 43.4392 89.8799 43.7203 90.8181 43.7203V43.7003Z" fill="#205036"/>
<path d="M109.281 2.99232C107.984 1.92794 106.607 0.903721 105.19 0C104.651 1.06438 104.032 2.0886 103.313 3.05257C102.535 4.01654 101.657 4.92026 100.699 5.70348C99.6806 6.44654 98.5828 7.08919 97.4451 7.59126C96.467 7.97283 95.4491 8.27407 94.3912 8.45481C93.6726 8.53514 92.9541 8.53514 92.2155 8.45481C91.6167 8.3544 91.0179 8.19374 90.4391 7.97283C89.9201 7.73184 89.4211 7.4306 88.9421 7.08919C88.6028 6.78795 88.2635 6.46663 87.9641 6.12522C87.8044 5.88423 87.6447 5.62315 87.5249 5.36208C87.4052 5.04076 87.3253 4.69935 87.2654 4.35794C87.2654 4.15712 87.2455 3.97637 87.2455 3.77555C85.0698 4.83993 83.1137 6.64737 82.6147 8.77614C84.0918 11.3066 86.7066 13.1341 89.481 13.9575C90.3992 14.2185 91.3573 14.3591 92.2954 14.4395C93.0139 14.4997 93.7325 14.4796 94.4511 14.3993C95.4291 14.2989 96.4072 14.1382 97.3652 13.8771C98.3034 13.6161 99.2215 13.2546 100.12 12.8529C102.994 11.6078 105.609 9.61961 107.565 7.16952C108.483 6.02481 109.321 4.81985 110.02 3.55464C109.78 3.35381 109.541 3.1329 109.281 2.93207V2.99232Z" fill="#205036"/>
<path d="M21.198 59.1631H22.4754L19.3017 67.9995H18.0043L14.8506 59.1631H16.188L18.7029 66.3126L21.198 59.1631Z" fill="#205036"/>
<path d="M24.1121 59.1631H29.1021V60.2878H25.3297V62.8383H29.0023V63.9629H25.3297V66.895H29.2219V68.0196H24.1321V59.1832L24.1121 59.1631Z" fill="#205036"/>
<path d="M34.4311 67.9994H33.2335V60.2876H30.459V59.163H37.2255V60.2876H34.4511V67.9994H34.4311Z" fill="#205036"/>
<path d="M38.5233 59.1631H43.5133V60.2878H39.7409V62.8383H43.4135V63.9629H39.7409V66.895H43.6331V68.0196H38.5433V59.1832L38.5233 59.1631Z" fill="#205036"/>
<path d="M46.9066 64.1637V67.9995H45.709V59.1631H48.8228C50.5992 59.1631 51.5772 60.2275 51.5772 61.6735C51.5772 63.1194 50.9984 63.5613 49.8008 63.9629L51.8567 67.9995H50.4595L48.5832 64.1637H46.9266H46.9066ZM46.9066 60.2677V63.0391H48.683C49.7609 63.0391 50.2998 62.4969 50.2998 61.6534C50.2998 60.8099 49.7808 60.2677 48.7629 60.2677H46.9066V60.2677Z" fill="#205036"/>
<path d="M54.8904 67.9994H53.6927V59.163H54.8904V67.9994Z" fill="#205036"/>
<path d="M58.4235 61.2116V67.9794H57.2858V59.1431H58.5033L63.1141 65.9712V59.1431H64.2518V67.9794H62.9744L58.4035 61.2116H58.4235Z" fill="#205036"/>
<path d="M71.6967 65.8304H67.7845L66.9262 67.9994H65.6488L69.2017 59.163H70.3993L73.8324 67.9994H72.5151L71.6768 65.8304H71.6967ZM68.2037 64.7259H71.2975L69.8005 60.87L68.2237 64.7259H68.2037Z" fill="#205036"/>
<path d="M76.4275 64.1637V67.9995H75.2299V59.1631H78.3436C80.1201 59.1631 81.0981 60.2275 81.0981 61.6735C81.0981 63.1194 80.5193 63.5613 79.3217 63.9629L81.3776 67.9995H79.9804L78.1041 64.1637H76.4474H76.4275ZM76.4275 60.2677V63.0391H78.2039C79.2818 63.0391 79.8207 62.4969 79.8207 61.6534C79.8207 60.8099 79.3017 60.2677 78.2838 60.2677H76.4275V60.2677Z" fill="#205036"/>
<path d="M88.0842 59.1631H89.4215L86.3078 64.2842V67.9995H85.1102V64.2842L82.0563 59.1631H83.4136L85.7489 63.0592L88.0842 59.1631V59.1631Z" fill="#205036"/>
</g>
<defs>
<clipPath id="clip0_4813_462">
<rect width="110" height="68" fill="white"/>
</clipPath>
</defs>
</svg>
